<svg width="20" height="20" viewBox="0 0 20 20" fill="none" xmlns="http://www.w3.org/2000/svg">
<path d="M19.423 10.1924H15.9615V8.99285C17.7031 8.71543 19.0384 7.20316 19.0384 5.38473V4.61551C19.0384 4.29691 18.7801 4.03859 18.4615 4.03859C18.1429 4.03859 17.8846 4.29691 17.8846 4.61551V5.38473C17.8846 6.56465 17.0627 7.55555 15.9615 7.8168V7.30781C15.9615 6.77762 15.5302 6.34629 15 6.34629H14.4231V4.23094C14.4231 3.01742 13.5538 2.00344 12.4052 1.77808L12.8349 0.811444C12.9643 0.520311 12.8331 0.179335 12.542 0.0499597C12.2508 -0.0794934 11.9099 0.0516785 11.7805 0.34285L11.1635 1.73098H8.83646L8.21955 0.342772C8.09017 0.0516394 7.74919 -0.0795325 7.45806 0.0498816C7.16693 0.179257 7.0358 0.520233 7.16517 0.811366L7.59478 1.77801C6.4463 2.0034 5.57701 3.0173 5.57701 4.23086V6.34621H5.00009C4.4699 6.34621 4.03857 6.77754 4.03857 7.30773V7.81672C2.9374 7.55551 2.11552 6.56457 2.11552 5.38465V4.61543C2.11552 4.29683 1.8572 4.03851 1.53861 4.03851C1.22001 4.03851 0.961693 4.29683 0.961693 4.61543V5.38465C0.961693 7.20308 2.29704 8.71531 4.03861 8.99277V10.1923H0.577006C0.258412 10.1923 9.15527e-05 10.4506 9.15527e-05 10.7692C9.15527e-05 11.0878 0.258412 11.3461 0.577006 11.3461H4.03853V12.5457C2.29697 12.8231 0.961615 14.3354 0.961615 16.1538V16.923C0.961615 17.2416 1.21994 17.4999 1.53853 17.4999C1.85712 17.4999 2.11544 17.2416 2.11544 16.923V16.1538C2.11544 14.9739 2.93732 13.983 4.03849 13.7217V14.0384C4.03853 17.3257 6.71287 20 10 20C13.2872 20 15.9615 17.3257 15.9615 14.0385V13.7218C17.0627 13.9831 17.8845 14.974 17.8845 16.1539V16.9231C17.8845 17.2417 18.1429 17.5 18.4615 17.5C18.7801 17.5 19.0384 17.2417 19.0384 16.9231V16.1539C19.0384 14.3355 17.703 12.8232 15.9615 12.5458V11.3462H19.423C19.7416 11.3462 19.9999 11.0879 19.9999 10.7693C19.9999 10.4507 19.7416 10.1924 19.423 10.1924ZM6.7308 4.2309C6.7308 3.48863 7.33466 2.88476 8.07693 2.88476H11.9231C12.6653 2.88476 13.2692 3.48863 13.2692 4.2309V6.34625H6.7308V4.2309ZM14.8077 14.0385C14.8077 16.6895 12.651 18.8462 10 18.8462C7.34908 18.8462 5.19236 16.6895 5.19236 14.0385V7.50012H9.4231V13.077C9.4231 13.3956 9.68142 13.6539 10 13.6539C10.3186 13.6539 10.5769 13.3956 10.5769 13.077V7.50012H14.8077V14.0385Z" fill="#0052A5"/>
</svg>
